<?xml version="1.0" encoding="utf-8"?>
<!-- Generator: Adobe Illustrator 24.1.1, SVG Export Plug-In . SVG Version: 6.00 Build 0)  -->
<svg version="1.1" id="Capa_1" xmlns="http://www.w3.org/2000/svg" xmlns:xlink="http://www.w3.org/1999/xlink" x="0px" y="0px"
	 viewBox="0 0 512 512" style="enable-background:new 0 0 512 512;" xml:space="preserve">
<g id="Layer_2">
	<g id="Layer_1-2">
		<path d="M237.2,197.6V11c0,0-60.4,30.1-60.4,94C176.8,169,237.2,197.6,237.2,197.6"/>
		<path d="M237.2,11c0,0,60.3,30.1,60.3,94s-60.3,92.5-60.3,92.5V11z"/>
		<path d="M378.1,285.4l83-47.1c0,0-28.7-19.3-57.1-3.2C375.5,251.2,378.1,285.3,378.1,285.4"/>
		<path d="M461.1,238.2c0,0,1.9,34.4-26.5,50.6c-28.4,16.1-56.4-3.4-56.4-3.4L461.1,238.2z"/>
		<path d="M465,230.5c-1.4-0.8-36.5-19.3-66-2.2c-23.7,13.6-28.4,41.1-29.3,52.6l-10.9,6.3c-11.7-11.5-30.4-11.5-42.1,0l-50.1-28.9
			c0.6-2.4,0.8-4.8,0.9-7.3c0-13.5-8.9-25.3-21.9-29.1v-17.8c14.6-9.4,60.9-43.5,60.9-97.7c0-62.8-62.2-101.9-64.9-103.7L237.1,0
			l-4.5,2.8c-2.7,1.6-65,40.7-65,103.7c0,54.2,46.4,88.3,61,97.7V222c-12.9,3.7-21.9,15.6-21.9,29.1c0,2.4,0.3,4.9,0.9,7.3
			l-50.1,28.9c-5.5-5.4-13-8.4-20.7-8.5c-16.7,0.1-30.2,13.7-30.2,30.4c0,13.4,8.9,25.2,21.8,29v60.1c-16.1,4.7-25.3,21.5-20.6,37.6
			c3.8,12.9,15.6,21.7,29,21.8c8.5,0,16.7-3.7,22.3-10l48.7,28.1c-0.6,2.4-0.9,4.8-0.9,7.2c0.6,16.7,14.7,29.7,31.4,29.1
			c15.8-0.6,28.5-13.3,29.1-29.1c0-2.4-0.3-4.9-0.9-7.2l48.7-28.1c5.7,6.4,13.8,10,22.3,9.9c16.7-0.2,30.1-13.9,29.9-30.6
			c-0.2-13.2-8.8-24.8-21.5-28.6v-60.1c12.9-3.8,21.8-15.6,21.9-29.1c0-2.4-0.3-4.8-0.8-7.1l10.9-6.2c10.4,5,21.7,7.7,33.3,8
			c9.5,0.1,18.9-2.3,27.1-7.1c29.5-17,31.1-56.6,31.1-58.2v-5.2L465,230.5z M346.1,319.6c-2.4,1.9-5.4,2.9-8.4,2.9
			c-1.6,0-3.2-0.3-4.7-0.9c-1.3-0.4-2.5-1.1-3.6-2c-2.8-2.1-4.6-5.2-5-8.7c0-0.6,0-1.3,0-1.9c0-0.6,0-1.1,0-1.7
			c0.9-6.8,6.7-11.9,13.6-11.8c1.8,0,3.6,0.3,5.3,1c5,2.1,8.2,7,8.2,12.5c0.1,0.7,0.1,1.5,0,2.2
			C350.7,314.6,348.8,317.6,346.1,319.6 M351.2,427.3c0,7.5-6.1,13.6-13.6,13.6c-2.5,0-4.9-0.7-7.1-2c-4-2.5-6.5-6.8-6.5-11.5
			c0-0.1,0-0.2,0-0.4l0,0c0-1.4,0.3-2.8,0.8-4.2c0.9-2.4,2.5-4.5,4.5-6.1c2.4-1.8,5.3-2.8,8.3-2.9c7.5,0,13.6,6.1,13.6,13.6
			 M329.4,398.3c-4.1,1.2-7.8,3.2-11.1,5.9l-51.5-29.8l0,0c0.4-2,0.6-4,0.6-6c0-2.8-0.4-5.7-1.2-8.4l50.5-29.2
			c3.5,3.4,7.8,5.8,12.5,7.2L329.4,398.3z M237.2,496.4c-6.7,0.1-12.5-4.8-13.6-11.4c0-0.7,0-1.4,0-2c0-5.5,3.4-10.4,8.5-12.5
			c3.3-1.3,6.9-1.3,10.2,0c5.1,2.1,8.4,7,8.4,12.5c0,0.7,0,1.4,0,2c-1,6.6-6.7,11.4-13.3,11.4 M207.6,374.4l-51.4,29.7
			c-3.2-2.7-7-4.8-11.1-5.9v-60.1c4.8-1.3,9.1-3.9,12.6-7.3l50.5,29.2c-0.9,2.8-1.3,5.6-1.3,8.5c0,2,0.2,4.1,0.6,6.1L207.6,374.4z
			 M150.3,427.3c0,4.7-2.5,9.1-6.5,11.5c-2.1,1.3-4.6,2-7.1,2c-7.5-0.1-13.5-6.2-13.4-13.7c0-4,1.9-7.9,5-10.4
			c2.4-1.9,5.4-2.9,8.4-2.9c0.8-0.1,1.6-0.1,2.4,0c2.2,0.4,4.2,1.3,6,2.7c2,1.6,3.6,3.7,4.5,6.1c0.5,1.4,0.7,2.8,0.8,4.2
			c0,0.1,0,0.2,0,0.4 M123.3,308.8c0-7.5,6.1-13.6,13.6-13.6c1.7,0,3.4,0.3,5,1c4.5,1.8,7.7,5.8,8.4,10.6c0,0.6,0,1.3,0,1.9
			c0,0.7,0,1.3,0,1.9c-0.5,3.4-2.3,6.5-5.1,8.7c-1,0.8-2.1,1.4-3.3,1.9c-1.6,0.7-3.3,1-5,1C129.3,322.3,123.3,316.2,123.3,308.8
			 M228.8,240.4c5.9-4.6,14.4-3.6,19,2.4c1.4,1.8,2.4,4,2.7,6.3c0,0.7,0,1.3,0,2c0,4.1-1.9,8-5.1,10.6c-1,0.8-2.2,1.4-3.4,1.9
			c-4.5,1.8-9.7,1.1-13.6-1.9c-3.3-2.6-5.1-6.5-5.2-10.6c0-0.7,0-1.3,0-2c0.5-3.4,2.3-6.5,5-8.6 M250.7,369.1
			c-0.2,3.9-2,7.6-5.1,10.1c-0.6,0.5-1.3,0.9-1.9,1.3c-2,1.1-4.2,1.6-6.4,1.6c-2.2,0-4.4-0.5-6.3-1.6c-0.7-0.4-1.4-0.8-2.1-1.3
			c-3.1-2.5-5-6.3-5.1-10.3c0-0.1,0-0.3,0-0.4c0-1.2,0.2-2.3,0.5-3.5c0.7-2.8,2.3-5.3,4.5-7.1c2.4-1.8,5.4-2.9,8.4-2.9
			c1.2,0,2.3,0.2,3.5,0.5c4.6,1.2,8.3,4.8,9.5,9.4c0.4,1.2,0.5,2.4,0.5,3.6L250.7,369.1L250.7,369.1z M308.2,301.7
			c-0.6,2.4-0.9,4.9-0.9,7.3c0,2.5,0.3,5,1,7.4l-51,29.5c-3.4-3-7.4-5.3-11.7-6.5v-59.1c4.7-1.4,9.1-3.9,12.6-7.3L308.2,301.7z
			 M184.6,106.4c0-44.5,39.2-76.8,52.6-86.4c13.6,9.6,52.6,41.7,52.6,86.4c0,37.2-27.6,64.2-44.2,77.1V113c-0.3-4.6-4.4-8.1-9-7.8
			c-4.2,0.3-7.5,3.6-7.8,7.8v70.6C212.1,170.7,184.6,143.8,184.6,106.4 M216.2,272.8c3.5,3.5,7.8,6,12.6,7.5v59.1
			c-4.3,1.2-8.3,3.4-11.6,6.4l-51.1-29.4c1.1-4.8,1.1-9.8,0-14.6L216.2,272.8z M166.5,432.6c0.8-4.9,0.5-9.9-1-14.6l49.7-28.7
			c3.7,3.9,8.4,6.7,13.6,8.2v56.3c-4.7,1.4-9.1,3.8-12.6,7.2L166.5,432.6z M258.2,461.1c-3.5-3.4-7.9-6-12.6-7.4v-55.9
			c5.2-1.5,9.9-4.3,13.6-8.2l49.7,28.7c-1.5,4.7-1.8,9.7-1,14.6L258.2,461.1z M430,281.9c-10.2,5.3-22.2,6.3-33.1,2.7l16.7-9.6
			c4-2.3,5.4-7.4,3.1-11.4c-2.3-4-7.4-5.4-11.4-3.1l-16.6,9.7c2.4-11.2,9.2-21,18.8-27.1c16-9.3,35.7-3.4,44.8,0
			C450.8,252.7,446.1,272.7,430,281.9"/>
	</g>
</g>
</svg>
